<mxfile host="app.diagrams.net" agent="Mozilla/5.0 (Windows NT 10.0; Win64; x64) AppleWebKit/537.36 (KHTML, like Gecko) Chrome/129.0.0.0 Safari/537.36" version="24.8.0">
  <diagram name="Page-1" id="dcItNQgl2toZj3ya5_So">
    <mxGraphModel dx="1232" dy="1097" grid="1" gridSize="10" guides="1" tooltips="1" connect="1" arrows="1" fold="1" page="1" pageScale="1" pageWidth="850" pageHeight="1100" math="0" shadow="0">
      <root>
        <mxCell id="0" />
        <mxCell id="1" parent="0" />
        <mxCell id="9OU2SBYdY14JRZC-RjCv-1" value="" style="strokeWidth=1;shadow=0;dashed=0;align=center;html=1;shape=mxgraph.mockup.containers.browserWindow;rSize=0;strokeColor=#666666;strokeColor2=#008cff;strokeColor3=#c4c4c4;mainText=,;recursiveResize=0;" vertex="1" parent="1">
          <mxGeometry x="40" y="120" width="760" height="940" as="geometry" />
        </mxCell>
        <mxCell id="9OU2SBYdY14JRZC-RjCv-2" value="DineScout" style="strokeWidth=1;shadow=0;dashed=0;align=center;html=1;shape=mxgraph.mockup.containers.anchor;fontSize=17;fontColor=#666666;align=left;whiteSpace=wrap;" vertex="1" parent="9OU2SBYdY14JRZC-RjCv-1">
          <mxGeometry x="60" y="12" width="110" height="26" as="geometry" />
        </mxCell>
        <mxCell id="9OU2SBYdY14JRZC-RjCv-3" value="https://www.airasia/mileagerewards/card-add.html" style="strokeWidth=1;shadow=0;dashed=0;align=center;html=1;shape=mxgraph.mockup.containers.anchor;rSize=0;fontSize=17;fontColor=#666666;align=left;" vertex="1" parent="9OU2SBYdY14JRZC-RjCv-1">
          <mxGeometry x="130" y="60" width="250" height="26" as="geometry" />
        </mxCell>
        <mxCell id="9OU2SBYdY14JRZC-RjCv-4" value="" style="strokeWidth=1;shadow=0;dashed=0;align=center;html=1;shape=mxgraph.mockup.forms.rrect;rSize=0;strokeColor=#999999;fillColor=#ffffff;" vertex="1" parent="9OU2SBYdY14JRZC-RjCv-1">
          <mxGeometry x="180" y="110" width="420" height="830" as="geometry" />
        </mxCell>
        <mxCell id="9OU2SBYdY14JRZC-RjCv-5" value="&lt;b&gt;Restaurant Food&lt;/b&gt;&lt;div&gt;&lt;b&gt;Review Submit&lt;/b&gt;&lt;/div&gt;" style="strokeWidth=1;shadow=0;dashed=0;align=center;html=1;shape=mxgraph.mockup.forms.anchor;fontSize=12;fontColor=#666666;align=left;resizeWidth=1;spacingLeft=0;" vertex="1" parent="9OU2SBYdY14JRZC-RjCv-4">
          <mxGeometry width="273" height="40" relative="1" as="geometry">
            <mxPoint x="155" y="122" as="offset" />
          </mxGeometry>
        </mxCell>
        <mxCell id="9OU2SBYdY14JRZC-RjCv-6" value="" style="strokeWidth=1;shadow=0;dashed=0;align=center;html=1;shape=mxgraph.mockup.forms.rrect;rSize=0;strokeColor=#999999;fontColor=#666666;align=left;spacingLeft=5;resizeWidth=1;" vertex="1" parent="9OU2SBYdY14JRZC-RjCv-4">
          <mxGeometry width="315" height="540" relative="1" as="geometry">
            <mxPoint x="53" y="234" as="offset" />
          </mxGeometry>
        </mxCell>
        <mxCell id="9OU2SBYdY14JRZC-RjCv-7" value="" style="ellipse;whiteSpace=wrap;html=1;aspect=fixed;" vertex="1" parent="9OU2SBYdY14JRZC-RjCv-4">
          <mxGeometry x="163.98000000000002" y="34.303030303030305" width="80" height="80" as="geometry" />
        </mxCell>
        <mxCell id="9OU2SBYdY14JRZC-RjCv-8" value="Logo" style="text;strokeColor=none;fillColor=none;html=1;fontSize=24;fontStyle=1;verticalAlign=middle;align=center;" vertex="1" parent="9OU2SBYdY14JRZC-RjCv-4">
          <mxGeometry x="100" y="51.61" width="210" height="45.39" as="geometry" />
        </mxCell>
        <mxCell id="9OU2SBYdY14JRZC-RjCv-9" value="Submit" style="strokeWidth=1;shadow=0;dashed=0;align=center;html=1;shape=mxgraph.mockup.forms.rrect;rSize=5;strokeColor=none;fontColor=#ffffff;fillColor=#66bbff;fontSize=16;fontStyle=1;" vertex="1" parent="9OU2SBYdY14JRZC-RjCv-4">
          <mxGeometry x="280" y="190" width="89.82" height="30" as="geometry" />
        </mxCell>
        <mxCell id="9OU2SBYdY14JRZC-RjCv-10" value="" style="verticalLabelPosition=bottom;shadow=0;dashed=0;align=center;html=1;verticalAlign=top;strokeWidth=1;shape=mxgraph.mockup.graphics.simpleIcon;strokeColor=#999999;" vertex="1" parent="9OU2SBYdY14JRZC-RjCv-4">
          <mxGeometry x="123.75" y="616" width="172.5" height="110" as="geometry" />
        </mxCell>
        <mxCell id="9OU2SBYdY14JRZC-RjCv-11" value="" style="strokeWidth=1;shadow=0;dashed=0;align=center;html=1;shape=mxgraph.mockup.forms.anchor;fontSize=12;fontColor=#666666;align=left;resizeWidth=1;spacingLeft=0;" vertex="1" parent="9OU2SBYdY14JRZC-RjCv-4">
          <mxGeometry x="165" y="247" width="90" height="20" as="geometry" />
        </mxCell>
        <mxCell id="9OU2SBYdY14JRZC-RjCv-12" value="" style="rounded=0;whiteSpace=wrap;html=1;" vertex="1" parent="9OU2SBYdY14JRZC-RjCv-4">
          <mxGeometry x="74" y="268" width="270" height="20" as="geometry" />
        </mxCell>
        <mxCell id="9OU2SBYdY14JRZC-RjCv-13" value="" style="rounded=0;whiteSpace=wrap;html=1;" vertex="1" parent="9OU2SBYdY14JRZC-RjCv-4">
          <mxGeometry x="73" y="471" width="273" height="90" as="geometry" />
        </mxCell>
        <mxCell id="9OU2SBYdY14JRZC-RjCv-14" value="" style="strokeWidth=1;shadow=0;dashed=0;align=center;html=1;shape=mxgraph.mockup.forms.comboBox;strokeColor=#999999;fillColor=#ddeeff;align=left;fillColor2=#aaddff;mainText=;fontColor=#666666;fontSize=17;spacingLeft=3;" vertex="1" parent="9OU2SBYdY14JRZC-RjCv-4">
          <mxGeometry x="76" y="313" width="274" height="20" as="geometry" />
        </mxCell>
        <mxCell id="9OU2SBYdY14JRZC-RjCv-15" value="Card Name: Name&lt;div&gt;&lt;br&gt;&lt;/div&gt;&lt;div&gt;&lt;br&gt;&lt;/div&gt;&lt;div&gt;Card Type: Type&lt;/div&gt;&lt;div&gt;&lt;br&gt;&lt;/div&gt;&lt;div&gt;&lt;br&gt;&lt;/div&gt;&lt;div&gt;Value: $Value&lt;/div&gt;&lt;div&gt;&lt;br&gt;&lt;/div&gt;&lt;div&gt;&lt;br&gt;&lt;/div&gt;&lt;div&gt;Points Required: Points&lt;/div&gt;&lt;div&gt;&lt;br&gt;&lt;/div&gt;&lt;div&gt;&lt;br&gt;&lt;/div&gt;&lt;div&gt;Description:&amp;nbsp;&lt;/div&gt;&lt;div&gt;&lt;br&gt;&lt;/div&gt;&lt;div&gt;Description here&lt;/div&gt;&lt;div&gt;&lt;br&gt;&lt;/div&gt;&lt;div&gt;&lt;br&gt;&lt;/div&gt;&lt;div&gt;&lt;br&gt;&lt;/div&gt;&lt;div&gt;&lt;br&gt;&lt;/div&gt;&lt;div&gt;&lt;br&gt;&lt;/div&gt;&lt;div&gt;&lt;br&gt;&lt;/div&gt;&lt;div&gt;&lt;br&gt;&lt;/div&gt;&lt;div&gt;&lt;br&gt;&lt;/div&gt;&lt;div&gt;Card Image: &lt;u&gt;&lt;font color=&quot;#3333ff&quot;&gt;Upload&amp;nbsp;Image&lt;/font&gt;&lt;/u&gt;&lt;/div&gt;" style="strokeWidth=1;shadow=0;dashed=0;align=center;html=1;shape=mxgraph.mockup.forms.anchor;fontSize=12;fontColor=#666666;align=left;resizeWidth=1;spacingLeft=0;" vertex="1" parent="9OU2SBYdY14JRZC-RjCv-4">
          <mxGeometry width="210" height="130" relative="1" as="geometry">
            <mxPoint x="73" y="358" as="offset" />
          </mxGeometry>
        </mxCell>
        <mxCell id="9OU2SBYdY14JRZC-RjCv-16" value="DineScout [Food Review Add Page]" style="text;strokeColor=none;fillColor=none;html=1;fontSize=24;fontStyle=1;verticalAlign=middle;align=center;" vertex="1" parent="1">
          <mxGeometry x="375" y="40" width="100" height="60" as="geometry" />
        </mxCell>
        <mxCell id="9OU2SBYdY14JRZC-RjCv-17" value="" style="rounded=0;whiteSpace=wrap;html=1;" vertex="1" parent="1">
          <mxGeometry x="296" y="584" width="270" height="20" as="geometry" />
        </mxCell>
        <mxCell id="9OU2SBYdY14JRZC-RjCv-18" value="" style="rounded=0;whiteSpace=wrap;html=1;" vertex="1" parent="1">
          <mxGeometry x="296" y="628" width="270" height="20" as="geometry" />
        </mxCell>
      </root>
    </mxGraphModel>
  </diagram>
</mxfile>
